<?xml version="1.0" encoding="UTF-8" standalone="no"?>
<!-- Generator: Adobe Illustrator 12.0.0, SVG Export Plug-In . SVG Version: 6.00 Build 51448)  -->

<svg
   version="1.1"
   id="Layer_1"
   width="100"
   height="100"
   viewBox="0 0 100 99.999999"
   overflow="visible"
   enable-background="new 0 0 280.22 69.387"
   xml:space="preserve"
   sodipodi:docname="gst.wasm.svg"
   inkscape:version="1.3.1 (9b9bdc1480, 2023-11-25, custom)"
   xmlns:inkscape="http://www.inkscape.org/namespaces/inkscape"
   xmlns:sodipodi="http://sodipodi.sourceforge.net/DTD/sodipodi-0.dtd"
   xmlns="http://www.w3.org/2000/svg"
   xmlns:svg="http://www.w3.org/2000/svg"><defs
   id="defs12" /><sodipodi:namedview
   id="namedview12"
   pagecolor="#ffffff"
   bordercolor="#666666"
   borderopacity="1.0"
   inkscape:showpageshadow="2"
   inkscape:pageopacity="0.0"
   inkscape:pagecheckerboard="0"
   inkscape:deskcolor="#d1d1d1"
   inkscape:zoom="4.4179573"
   inkscape:cx="140.11"
   inkscape:cy="34.631389"
   inkscape:window-width="1920"
   inkscape:window-height="1136"
   inkscape:window-x="0"
   inkscape:window-y="0"
   inkscape:window-maximized="1"
   inkscape:current-layer="Layer_1" />









<path
   fill="#FF3131"
   d="m 52.801492,32.823298 c -5.409,0 -13.323,-4.407 -21.036,-4.407 -7.713,0 -12.32,4.407 -13.122,5.008 -0.801,0.601 -1.303,2.904 1.102,2.203 2.405,-0.701 4.407,-0.701 8.214,-0.701 3.807,0 12.922,5.209 22.138,5.209 9.216,0 16.928,-7.111 18.631,-9.616 1.703,-2.505 0.1,-3.306 -1.202,-2.704 -1.303,0.601 -9.716,5.008 -14.725,5.008 z"
   id="path10"
   style="fill:#654ff0;fill-opacity:1" />
<path
   fill="#319831"
   d="m 76.299492,46.545298 c -5.683,0 -13.997,-4.406 -22.1,-4.406 -8.103,0 -12.944,4.406 -13.786,5.008 -0.842,0.602 -1.369,2.904 1.157,2.203 2.526,-0.701 4.63,-0.701 8.629,-0.701 3.999,0 13.576,5.209 23.257,5.209 9.681,0 17.785,-7.111 19.574,-9.615 1.789,-2.505 0.105,-3.307 -1.263,-2.705 -1.368,0.602 -10.206,5.007 -15.468,5.007 z"
   id="path11"
   style="fill:#654ff0;fill-opacity:1" />
<path
   fill="#3232CC"
   d="m 43.596492,61.687298 c -5.893,0 -14.515,-4.761 -22.918,-4.761 -8.403,0 -13.4239999,4.761 -14.2969999,5.41 -0.873,0.649 -1.419,3.137 1.2,2.379 2.6199999,-0.757 4.8019999,-0.757 8.9489999,-0.757 4.147,0 14.079,5.626 24.12,5.626 10.04,0 18.443,-7.681 20.299,-10.386 1.856,-2.705 0.109,-3.57 -1.31,-2.921 -1.419,0.649 -10.586,5.41 -16.043,5.41 z"
   id="path12"
   style="fill:#654ff0;fill-opacity:1" />
</svg>
